<?xml version="1.0" encoding="UTF-8"?>
<!DOCTYPE svg PUBLIC "-//W3C//DTD SVG 1.1//EN" "http://www.w3.org/Graphics/SVG/1.1/DTD/svg11.dtd">
<svg xmlns="http://www.w3.org/2000/svg" version="1.1" width="456px" height="454px" style="shape-rendering:geometricPrecision; text-rendering:geometricPrecision; image-rendering:optimizeQuality; fill-rule:evenodd; clip-rule:evenodd" xmlns:xlink="http://www.w3.org/1999/xlink">
<g><path style="opacity:1" fill="#221d29" d="M -0.5,-0.5 C 151.5,-0.5 303.5,-0.5 455.5,-0.5C 455.5,0.166667 455.5,0.833333 455.5,1.5C 453.5,1.5 451.5,1.5 449.5,1.5C 435.127,0.850946 421.127,1.51761 407.5,3.5C 370.584,2.19175 333.584,1.52508 296.5,1.5C 259.416,1.52508 222.416,2.19175 185.5,3.5C 184.817,1.82351 183.483,1.15684 181.5,1.5C 120.833,1.5 60.1667,1.5 -0.5,1.5C -0.5,0.833333 -0.5,0.166667 -0.5,-0.5 Z"/></g>
<g><path style="opacity:1" fill="#fefefe" d="M -0.5,1.5 C 60.1667,1.5 120.833,1.5 181.5,1.5C 181.5,2.16667 181.5,2.83333 181.5,3.5C 180.167,3.5 178.833,3.5 177.5,3.5C 176.167,3.5 175.5,4.16667 175.5,5.5C 158.257,11.4142 148.257,23.4142 145.5,41.5C 144.167,58.8205 143.5,76.4871 143.5,94.5C 143.5,112.513 144.167,130.18 145.5,147.5C 145.627,157.291 150.627,161.958 160.5,161.5C 162.833,161.167 165.167,160.833 167.5,160.5C 169.833,158.167 172.167,155.833 174.5,153.5C 175.429,152.311 175.762,150.978 175.5,149.5C 177.493,115.183 178.16,80.5161 177.5,45.5C 178.66,41.0025 181.326,37.6691 185.5,35.5C 259.5,35.5 333.5,35.5 407.5,35.5C 412.167,36.1667 414.833,38.8333 415.5,43.5C 415.5,165.5 415.5,287.5 415.5,409.5C 414.833,414.167 412.167,416.833 407.5,417.5C 333.5,417.5 259.5,417.5 185.5,417.5C 181.326,415.331 178.66,411.998 177.5,407.5C 178.16,372.484 177.493,337.817 175.5,303.5C 175.762,302.022 175.429,300.689 174.5,299.5C 167.659,290.994 159.326,289.327 149.5,294.5C 147.89,296.725 146.557,299.059 145.5,301.5C 144.167,319.488 143.5,337.821 143.5,356.5C 143.5,375.179 144.167,393.512 145.5,411.5C 145.5,412.833 145.5,414.167 145.5,415.5C 145.157,417.483 145.824,418.817 147.5,419.5C 152.159,433.492 161.492,442.826 175.5,447.5C 175.5,448.833 176.167,449.5 177.5,449.5C 178.833,449.5 180.167,449.5 181.5,449.5C 181.5,450.167 181.5,450.833 181.5,451.5C 120.833,451.5 60.1667,451.5 -0.5,451.5C -0.5,378.833 -0.5,306.167 -0.5,233.5C 0.166667,233.5 0.833333,233.5 1.5,233.5C 29.7629,262.764 58.4296,291.764 87.5,320.5C 88.6888,321.429 90.0222,321.762 91.5,321.5C 92.3339,322.748 93.6672,323.415 95.5,323.5C 97.3328,323.415 98.6661,322.748 99.5,321.5C 100.833,321.5 102.167,321.5 103.5,321.5C 104.833,321.5 105.5,320.833 105.5,319.5C 108.08,318.385 109.746,316.385 110.5,313.5C 111.833,308.833 111.833,304.167 110.5,299.5C 92.4288,281.763 74.7621,263.763 57.5,245.5C 146.833,244.167 236.167,242.833 325.5,241.5C 330.879,240.121 334.212,236.788 335.5,231.5C 336.777,230.306 337.444,228.64 337.5,226.5C 337.444,224.36 336.777,222.694 335.5,221.5C 334.212,216.212 330.879,212.879 325.5,211.5C 236.167,210.167 146.833,208.833 57.5,207.5C 74.0953,189.903 91.0953,172.57 108.5,155.5C 114.483,143.923 111.483,135.923 99.5,131.5C 98.6661,130.252 97.3328,129.585 95.5,129.5C 93.6672,129.585 92.3339,130.252 91.5,131.5C 90.0222,131.238 88.6888,131.571 87.5,132.5C 57.7086,161.957 28.3752,191.623 -0.5,221.5C -0.5,148.167 -0.5,74.8333 -0.5,1.5 Z"/></g>
<g><path style="opacity:1" fill="#8b8b8b" d="M 181.5,1.5 C 183.483,1.15684 184.817,1.82351 185.5,3.5C 184.167,3.5 182.833,3.5 181.5,3.5C 181.5,2.83333 181.5,2.16667 181.5,1.5 Z"/></g>
<g><path style="opacity:1" fill="#000000" d="M 407.5,3.5 C 410.167,3.5 412.833,3.5 415.5,3.5C 416.183,5.17649 417.517,5.84316 419.5,5.5C 436.544,12.5363 445.877,25.203 447.5,43.5C 448.818,104.418 449.485,165.418 449.5,226.5C 449.485,287.582 448.818,348.582 447.5,409.5C 447.5,412.167 447.5,414.833 447.5,417.5C 445.824,418.183 445.157,419.517 445.5,421.5C 440.167,433.5 431.5,442.167 419.5,447.5C 417.517,447.157 416.183,447.824 415.5,449.5C 412.833,449.5 410.167,449.5 407.5,449.5C 334.833,449.5 262.167,449.5 189.5,449.5C 186.833,449.5 184.167,449.5 181.5,449.5C 180.167,449.5 178.833,449.5 177.5,449.5C 176.167,449.5 175.5,448.833 175.5,447.5C 161.492,442.826 152.159,433.492 147.5,419.5C 147.843,417.517 147.176,416.183 145.5,415.5C 145.5,414.167 145.5,412.833 145.5,411.5C 145.5,374.833 145.5,338.167 145.5,301.5C 146.557,299.059 147.89,296.725 149.5,294.5C 159.326,289.327 167.659,290.994 174.5,299.5C 175.429,300.689 175.762,302.022 175.5,303.5C 174.84,338.516 175.507,373.183 177.5,407.5C 178.66,411.998 181.326,415.331 185.5,417.5C 222.161,418.833 259.161,419.5 296.5,419.5C 333.839,419.5 370.839,418.833 407.5,417.5C 412.167,416.833 414.833,414.167 415.5,409.5C 416.833,348.837 417.5,287.837 417.5,226.5C 417.5,165.163 416.833,104.163 415.5,43.5C 414.833,38.8333 412.167,36.1667 407.5,35.5C 370.839,34.1668 333.839,33.5001 296.5,33.5C 259.161,33.5001 222.161,34.1668 185.5,35.5C 181.326,37.6691 178.66,41.0025 177.5,45.5C 175.507,79.8173 174.84,114.484 175.5,149.5C 175.762,150.978 175.429,152.311 174.5,153.5C 172.167,155.833 169.833,158.167 167.5,160.5C 165.167,160.833 162.833,161.167 160.5,161.5C 150.627,161.958 145.627,157.291 145.5,147.5C 145.5,112.167 145.5,76.8333 145.5,41.5C 148.257,23.4142 158.257,11.4142 175.5,5.5C 176.833,5.5 177.5,4.83333 177.5,3.5C 178.833,3.5 180.167,3.5 181.5,3.5C 182.833,3.5 184.167,3.5 185.5,3.5C 222.416,2.19175 259.416,1.52508 296.5,1.5C 333.584,1.52508 370.584,2.19175 407.5,3.5 Z"/></g>
<g><path style="opacity:1" fill="#f5f5f5" d="M 449.5,1.5 C 450.149,15.8733 449.482,29.8733 447.5,43.5C 445.877,25.203 436.544,12.5363 419.5,5.5C 418.817,3.82351 417.483,3.15684 415.5,3.5C 412.833,3.5 410.167,3.5 407.5,3.5C 421.127,1.51761 435.127,0.850946 449.5,1.5 Z"/></g>
<g><path style="opacity:1" fill="#282828" d="M 449.5,1.5 C 451.5,1.5 453.5,1.5 455.5,1.5C 455.5,151.5 455.5,301.5 455.5,451.5C 453.5,451.5 451.5,451.5 449.5,451.5C 450.149,437.127 449.482,423.127 447.5,409.5C 448.818,348.582 449.485,287.582 449.5,226.5C 449.485,165.418 448.818,104.418 447.5,43.5C 449.482,29.8733 450.149,15.8733 449.5,1.5 Z"/></g>
<g><path style="opacity:1" fill="#747574" d="M 177.5,3.5 C 177.5,4.83333 176.833,5.5 175.5,5.5C 175.5,4.16667 176.167,3.5 177.5,3.5 Z"/></g>
<g><path style="opacity:1" fill="#939393" d="M 415.5,3.5 C 417.483,3.15684 418.817,3.82351 419.5,5.5C 417.517,5.84316 416.183,5.17649 415.5,3.5 Z"/></g>
<g><path style="opacity:1" fill="#e4e4e4" d="M 407.5,35.5 C 333.5,35.5 259.5,35.5 185.5,35.5C 222.161,34.1668 259.161,33.5001 296.5,33.5C 333.839,33.5001 370.839,34.1668 407.5,35.5 Z"/></g>
<g><path style="opacity:1" fill="#e5e5e5" d="M 415.5,43.5 C 416.833,104.163 417.5,165.163 417.5,226.5C 417.5,287.837 416.833,348.837 415.5,409.5C 415.5,287.5 415.5,165.5 415.5,43.5 Z"/></g>
<g><path style="opacity:1" fill="#616161" d="M 145.5,41.5 C 145.5,76.8333 145.5,112.167 145.5,147.5C 144.167,130.18 143.5,112.513 143.5,94.5C 143.5,76.4871 144.167,58.8205 145.5,41.5 Z"/></g>
<g><path style="opacity:1" fill="#b8b8b8" d="M 177.5,45.5 C 178.16,80.5161 177.493,115.183 175.5,149.5C 174.84,114.484 175.507,79.8173 177.5,45.5 Z"/></g>
<g><path style="opacity:1" fill="#8f8f8f" d="M 99.5,131.5 C 96.8333,131.5 94.1667,131.5 91.5,131.5C 92.3339,130.252 93.6672,129.585 95.5,129.5C 97.3328,129.585 98.6661,130.252 99.5,131.5 Z"/></g>
<g><path style="opacity:1" fill="#000000" d="M 91.5,131.5 C 94.1667,131.5 96.8333,131.5 99.5,131.5C 111.483,135.923 114.483,143.923 108.5,155.5C 91.0953,172.57 74.0953,189.903 57.5,207.5C 55.8235,208.183 55.1568,209.517 55.5,211.5C 145.5,211.5 235.5,211.5 325.5,211.5C 330.879,212.879 334.212,216.212 335.5,221.5C 335.5,224.833 335.5,228.167 335.5,231.5C 334.212,236.788 330.879,240.121 325.5,241.5C 235.5,241.5 145.5,241.5 55.5,241.5C 55.1568,243.483 55.8235,244.817 57.5,245.5C 74.7621,263.763 92.4288,281.763 110.5,299.5C 111.833,304.167 111.833,308.833 110.5,313.5C 109.746,316.385 108.08,318.385 105.5,319.5C 104.167,319.5 103.5,320.167 103.5,321.5C 102.167,321.5 100.833,321.5 99.5,321.5C 96.8333,321.5 94.1667,321.5 91.5,321.5C 90.0222,321.762 88.6888,321.429 87.5,320.5C 58.4296,291.764 29.7629,262.764 1.5,233.5C 1.84316,231.517 1.17649,230.183 -0.5,229.5C -0.5,226.833 -0.5,224.167 -0.5,221.5C 28.3752,191.623 57.7086,161.957 87.5,132.5C 88.6888,131.571 90.0222,131.238 91.5,131.5 Z"/></g>
<g><path style="opacity:1" fill="#8f8f8f" d="M 57.5,207.5 C 146.833,208.833 236.167,210.167 325.5,211.5C 235.5,211.5 145.5,211.5 55.5,211.5C 55.1568,209.517 55.8235,208.183 57.5,207.5 Z"/></g>
<g><path style="opacity:1" fill="#777777" d="M 335.5,221.5 C 336.777,222.694 337.444,224.36 337.5,226.5C 337.444,228.64 336.777,230.306 335.5,231.5C 335.5,228.167 335.5,224.833 335.5,221.5 Z"/></g>
<g><path style="opacity:1" fill="#9c9c9c" d="M -0.5,229.5 C 1.17649,230.183 1.84316,231.517 1.5,233.5C 0.833333,233.5 0.166667,233.5 -0.5,233.5C -0.5,232.167 -0.5,230.833 -0.5,229.5 Z"/></g>
<g><path style="opacity:1" fill="#8f8f8f" d="M 325.5,241.5 C 236.167,242.833 146.833,244.167 57.5,245.5C 55.8235,244.817 55.1568,243.483 55.5,241.5C 145.5,241.5 235.5,241.5 325.5,241.5 Z"/></g>
<g><path style="opacity:1" fill="#646464" d="M 145.5,301.5 C 145.5,338.167 145.5,374.833 145.5,411.5C 144.167,393.512 143.5,375.179 143.5,356.5C 143.5,337.821 144.167,319.488 145.5,301.5 Z"/></g>
<g><path style="opacity:1" fill="#b7b7b7" d="M 175.5,303.5 C 177.493,337.817 178.16,372.484 177.5,407.5C 175.507,373.183 174.84,338.516 175.5,303.5 Z"/></g>
<g><path style="opacity:1" fill="#747574" d="M 105.5,319.5 C 105.5,320.833 104.833,321.5 103.5,321.5C 103.5,320.167 104.167,319.5 105.5,319.5 Z"/></g>
<g><path style="opacity:1" fill="#555555" d="M 91.5,321.5 C 94.1667,321.5 96.8333,321.5 99.5,321.5C 98.6661,322.748 97.3328,323.415 95.5,323.5C 93.6672,323.415 92.3339,322.748 91.5,321.5 Z"/></g>
<g><path style="opacity:1" fill="#8d8d8d" d="M 145.5,415.5 C 147.176,416.183 147.843,417.517 147.5,419.5C 145.824,418.817 145.157,417.483 145.5,415.5 Z"/></g>
<g><path style="opacity:1" fill="#e4e4e4" d="M 185.5,417.5 C 259.5,417.5 333.5,417.5 407.5,417.5C 370.839,418.833 333.839,419.5 296.5,419.5C 259.161,419.5 222.161,418.833 185.5,417.5 Z"/></g>
<g><path style="opacity:1" fill="#f6f6f6" d="M 447.5,409.5 C 449.482,423.127 450.149,437.127 449.5,451.5C 435.5,451.5 421.5,451.5 407.5,451.5C 407.5,450.833 407.5,450.167 407.5,449.5C 410.167,449.5 412.833,449.5 415.5,449.5C 417.483,449.843 418.817,449.176 419.5,447.5C 431.5,442.167 440.167,433.5 445.5,421.5C 447.176,420.817 447.843,419.483 447.5,417.5C 447.5,414.833 447.5,412.167 447.5,409.5 Z"/></g>
<g><path style="opacity:1" fill="#939393" d="M 447.5,417.5 C 447.843,419.483 447.176,420.817 445.5,421.5C 445.157,419.517 445.824,418.183 447.5,417.5 Z"/></g>
<g><path style="opacity:1" fill="#747574" d="M 175.5,447.5 C 176.833,447.5 177.5,448.167 177.5,449.5C 177.5,448.167 176.833,447.5 175.5,447.5 Z"/></g>
<g><path style="opacity:1" fill="#939393" d="M 419.5,447.5 C 418.817,449.176 417.483,449.843 415.5,449.5C 416.183,447.824 417.517,447.157 419.5,447.5 Z"/></g>
<g><path style="opacity:1" fill="#6f6f6f" d="M 181.5,449.5 C 184.167,449.5 186.833,449.5 189.5,449.5C 189.5,450.167 189.5,450.833 189.5,451.5C 186.833,451.5 184.167,451.5 181.5,451.5C 181.5,450.833 181.5,450.167 181.5,449.5 Z"/></g>
<g><path style="opacity:1" fill="#333333" d="M 189.5,449.5 C 262.167,449.5 334.833,449.5 407.5,449.5C 407.5,450.167 407.5,450.833 407.5,451.5C 334.833,451.5 262.167,451.5 189.5,451.5C 189.5,450.833 189.5,450.167 189.5,449.5 Z"/></g>
<g><path style="opacity:1" fill="#101316" d="M -0.5,451.5 C 60.1667,451.5 120.833,451.5 181.5,451.5C 184.167,451.5 186.833,451.5 189.5,451.5C 262.167,451.5 334.833,451.5 407.5,451.5C 421.5,451.5 435.5,451.5 449.5,451.5C 451.5,451.5 453.5,451.5 455.5,451.5C 455.5,452.167 455.5,452.833 455.5,453.5C 303.5,453.5 151.5,453.5 -0.5,453.5C -0.5,452.833 -0.5,452.167 -0.5,451.5 Z"/></g>
</svg>
