<?xml version="1.0" standalone="no"?>
<!DOCTYPE svg PUBLIC "-//W3C//DTD SVG 20010904//EN"
 "http://www.w3.org/TR/2001/REC-SVG-20010904/DTD/svg10.dtd">
<svg version="1.0" xmlns="http://www.w3.org/2000/svg"
 width="136.000000pt" height="160.000000pt" viewBox="0 0 136.000000 160.000000"
 preserveAspectRatio="xMidYMid meet">

<g transform="translate(0.000000,160.000000) scale(0.100000,-0.100000)"
fill="#000000" stroke="none">
<path d="M360 1321 c-44 -14 -124 -58 -141 -77 -72 -82 -109 -274 -74 -375 26
-73 79 -119 150 -128 l40 -6 6 -60 c8 -76 41 -190 63 -214 16 -17 16 -22 1
-68 -14 -44 -14 -52 -1 -85 47 -111 150 -157 246 -108 73 37 120 134 91 189
-14 26 -15 26 55 0 32 -12 81 -22 110 -23 44 0 60 5 107 37 56 37 93 81 178
212 64 98 72 129 67 249 -6 112 -14 138 -85 258 -53 90 -85 121 -162 156 -45
20 -64 24 -116 19 -71 -5 -148 -43 -199 -96 -17 -17 -33 -31 -37 -31 -4 0 -31
22 -59 50 -88 86 -175 122 -240 101z m93 -65 c53 -22 155 -122 167 -164 24
-88 10 -160 -56 -298 -54 -111 -58 -168 -19 -226 14 -20 25 -39 25 -42 0 -2
-23 -12 -52 -22 -51 -17 -52 -17 -70 6 -23 28 -39 87 -48 175 -6 68 -6 71 23
97 28 27 29 30 25 117 -2 70 -7 93 -22 110 -24 27 -73 27 -106 1 -21 -16 -23
-22 -14 -37 7 -10 19 -17 28 -15 9 1 24 3 33 5 21 3 35 -52 27 -105 -5 -34
-10 -39 -46 -49 -76 -20 -116 4 -148 87 -19 51 -19 57 -4 136 22 118 54 169
128 207 66 35 83 37 129 17z m544 -35 c47 -23 68 -40 89 -73 15 -24 42 -66 60
-94 26 -38 37 -71 49 -143 20 -114 11 -162 -44 -248 -21 -32 -49 -76 -63 -98
-36 -56 -97 -115 -136 -132 -27 -11 -44 -12 -88 -3 -30 6 -67 18 -82 26 -33
17 -69 18 -74 2 -7 -19 -68 30 -68 53 0 11 -13 40 -30 64 -39 57 -39 104 -1
176 50 94 82 204 81 273 -1 33 -1 66 -1 73 2 23 54 74 111 107 93 55 113 56
197 17z m-350 -816 l54 -56 -23 -40 c-26 -47 -62 -69 -114 -69 -29 0 -43 7
-69 36 -19 20 -36 47 -40 61 -8 34 18 73 51 73 14 0 27 7 31 18 18 48 47 42
110 -23z"/>
<path d="M807 1040 c-55 -10 -77 -24 -77 -52 0 -24 27 -35 51 -20 28 18 203
34 234 22 15 -6 32 -25 41 -47 26 -60 30 -67 42 -71 42 -14 23 116 -23 155
-24 21 -36 23 -123 22 -53 -1 -119 -5 -145 -9z"/>
<path d="M793 854 c-26 -6 -31 -35 -9 -53 8 -7 25 -9 40 -5 15 3 46 3 70 0 33
-5 46 -13 55 -32 17 -38 46 -28 46 15 0 48 -33 70 -115 75 -36 3 -75 2 -87 0z"/>
<path d="M714 665 c-9 -23 2 -31 70 -45 36 -7 66 -17 66 -22 0 -15 51 -8 57 7
9 25 -25 53 -78 64 -69 15 -109 14 -115 -4z"/>
</g>
</svg>
