<?xml version="1.0" standalone="no"?>
<!DOCTYPE svg PUBLIC "-//W3C//DTD SVG 20010904//EN"
 "http://www.w3.org/TR/2001/REC-SVG-20010904/DTD/svg10.dtd">
<svg version="1.0" xmlns="http://www.w3.org/2000/svg"
 width="138.000000pt" height="136.000000pt" viewBox="0 0 138.000000 136.000000"
 preserveAspectRatio="xMidYMid meet">

<g transform="translate(0.000000,136.000000) scale(0.100000,-0.100000)"
fill="#000000" stroke="none">
<path d="M615 1270 c-86 -10 -199 -54 -271 -105 -263 -188 -341 -514 -192
-808 41 -82 165 -205 247 -247 97 -48 146 -61 266 -67 196 -10 331 41 466 176
130 131 183 256 183 436 0 93 -4 122 -27 191 -78 231 -274 394 -511 424 -44 5
-85 9 -91 9 -5 -1 -37 -5 -70 -9z m174 -61 c286 -46 495 -316 466 -603 -9 -99
-63 -246 -89 -246 -13 0 -186 171 -186 184 0 5 8 16 18 25 9 9 30 34 47 56 16
22 32 42 36 45 4 3 17 24 29 48 19 36 22 54 17 103 -5 62 -20 93 -87 184 -75
102 -169 140 -330 133 -84 -3 -103 -8 -164 -38 -189 -95 -280 -289 -204 -435
15 -27 52 -75 82 -105 l56 -54 -107 -108 -107 -107 -23 32 c-21 27 -45 76 -84
162 -18 41 -28 157 -19 240 23 227 213 435 438 480 84 17 130 18 211 4z m72
-143 c126 -38 246 -229 199 -316 -24 -44 -112 -150 -125 -150 -18 0 -26 -26
-19 -58 4 -16 52 -73 113 -135 l106 -108 -58 -55 c-61 -56 -133 -98 -227 -130
-74 -25 -233 -25 -310 0 -68 23 -166 76 -204 111 l-29 27 122 122 c106 106
123 128 124 157 2 31 -1 34 -28 37 -33 4 -80 44 -122 104 -21 31 -26 51 -27
101 -1 72 23 129 82 190 111 114 248 150 403 103z"/>
<path d="M0 10 c0 -7 237 -10 690 -10 453 0 690 3 690 10 0 7 -237 10 -690 10
-453 0 -690 -3 -690 -10z"/>
</g>
</svg>
